{
	"patcher" : 	{
		"fileversion" : 1,
		"appversion" : 		{
			"major" : 8,
			"minor" : 1,
			"revision" : 0,
			"architecture" : "x64",
			"modernui" : 1
		}
,
		"classnamespace" : "box",
		"rect" : [ 34.0, 79.0, 2783.0, 2008.0 ],
		"bglocked" : 0,
		"openinpresentation" : 0,
		"default_fontsize" : 12.0,
		"default_fontface" : 0,
		"default_fontname" : "Arial",
		"gridonopen" : 1,
		"gridsize" : [ 15.0, 15.0 ],
		"gridsnaponopen" : 1,
		"objectsnaponopen" : 1,
		"statusbarvisible" : 2,
		"toolbarvisible" : 1,
		"lefttoolbarpinned" : 0,
		"toptoolbarpinned" : 0,
		"righttoolbarpinned" : 0,
		"bottomtoolbarpinned" : 0,
		"toolbars_unpinned_last_save" : 0,
		"tallnewobj" : 0,
		"boxanimatetime" : 200,
		"enablehscroll" : 1,
		"enablevscroll" : 1,
		"devicewidth" : 0.0,
		"description" : "",
		"digest" : "",
		"tags" : "",
		"style" : "",
		"subpatcher_template" : "",
		"boxes" : [ 			{
				"box" : 				{
					"fontface" : 1,
					"fontsize" : 14.0,
					"id" : "obj-31",
					"maxclass" : "comment",
					"numinlets" : 1,
					"numoutlets" : 0,
					"patching_rect" : [ 945.600014090538025, 501.900008082389832, 100.0, 22.0 ],
					"text" : "Learning"
				}

			}
, 			{
				"box" : 				{
					"id" : "obj-29",
					"linecount" : 2,
					"maxclass" : "comment",
					"numinlets" : 1,
					"numoutlets" : 0,
					"patching_rect" : [ 326.899999856948853, 1181.513920783996582, 79.599998950958252, 33.0 ],
					"presentation_linecount" : 2,
					"text" : "learned output data"
				}

			}
, 			{
				"box" : 				{
					"id" : "obj-28",
					"linecount" : 3,
					"maxclass" : "comment",
					"numinlets" : 1,
					"numoutlets" : 0,
					"patching_rect" : [ 648.161310255527496, 663.200009882450104, 79.599998950958252, 47.0 ],
					"presentation_linecount" : 3,
					"text" : "show what you have learned"
				}

			}
, 			{
				"box" : 				{
					"id" : "obj-27",
					"linecount" : 3,
					"maxclass" : "comment",
					"numinlets" : 1,
					"numoutlets" : 0,
					"patching_rect" : [ 972.961315095424652, 542.400008082389832, 79.599998950958252, 47.0 ],
					"presentation_linecount" : 3,
					"text" : "use input data as learning data"
				}

			}
, 			{
				"box" : 				{
					"id" : "obj-26",
					"linecount" : 2,
					"maxclass" : "comment",
					"numinlets" : 1,
					"numoutlets" : 0,
					"patching_rect" : [ 1497.761322915554047, 618.854960560798645, 79.599998950958252, 33.0 ],
					"presentation_linecount" : 2,
					"text" : "examples of output data"
				}

			}
, 			{
				"box" : 				{
					"id" : "obj-25",
					"maxclass" : "comment",
					"numinlets" : 1,
					"numoutlets" : 0,
					"patching_rect" : [ 1227.36131888628006, 720.718195199966431, 79.599998950958252, 20.0 ],
					"text" : "input data"
				}

			}
, 			{
				"box" : 				{
					"id" : "obj-24",
					"linecount" : 2,
					"maxclass" : "comment",
					"numinlets" : 1,
					"numoutlets" : 0,
					"patching_rect" : [ 1067.003427743911743, 796.0, 79.599998950958252, 33.0 ],
					"presentation_linecount" : 2,
					"text" : "<- start recording"
				}

			}
, 			{
				"box" : 				{
					"id" : "obj-23",
					"linecount" : 3,
					"maxclass" : "comment",
					"numinlets" : 1,
					"numoutlets" : 0,
					"patching_rect" : [ 954.603427588939667, 831.0, 79.599998950958252, 47.0 ],
					"text" : "record input values each 250 ms"
				}

			}
, 			{
				"box" : 				{
					"id" : "obj-20",
					"maxclass" : "button",
					"numinlets" : 1,
					"numoutlets" : 1,
					"outlettype" : [ "bang" ],
					"parameter_enable" : 0,
					"patching_rect" : [ 824.0, 1266.0, 24.0, 24.0 ]
				}

			}
, 			{
				"box" : 				{
					"id" : "obj-18",
					"maxclass" : "newobj",
					"numinlets" : 1,
					"numoutlets" : 1,
					"outlettype" : [ "int" ],
					"patching_rect" : [ 214.749127849936485, 867.0, 19.0, 22.0 ],
					"text" : "t i"
				}

			}
, 			{
				"box" : 				{
					"id" : "obj-17",
					"maxclass" : "number",
					"numinlets" : 1,
					"numoutlets" : 2,
					"outlettype" : [ "", "bang" ],
					"parameter_enable" : 0,
					"patching_rect" : [ 336.5, 918.0, 78.0, 22.0 ]
				}

			}
, 			{
				"box" : 				{
					"id" : "obj-16",
					"maxclass" : "newobj",
					"numinlets" : 2,
					"numoutlets" : 2,
					"outlettype" : [ "int", "int" ],
					"patching_rect" : [ 260.300003707408905, 918.0, 61.0, 22.0 ],
					"text" : "maximum"
				}

			}
, 			{
				"box" : 				{
					"id" : "obj-15",
					"maxclass" : "newobj",
					"numinlets" : 1,
					"numoutlets" : 6,
					"outlettype" : [ "int", "int", "int", "int", "int", "int" ],
					"patching_rect" : [ 299.0, 727.0, 83.0, 22.0 ],
					"text" : "unpack i i i i i i"
				}

			}
, 			{
				"box" : 				{
					"id" : "obj-14",
					"maxclass" : "number",
					"numinlets" : 1,
					"numoutlets" : 2,
					"outlettype" : [ "", "bang" ],
					"parameter_enable" : 0,
					"patching_rect" : [ 174.0, 918.0, 78.0, 22.0 ]
				}

			}
, 			{
				"box" : 				{
					"id" : "obj-11",
					"maxclass" : "newobj",
					"numinlets" : 2,
					"numoutlets" : 2,
					"outlettype" : [ "int", "int" ],
					"patching_rect" : [ 105.0, 918.0, 57.0, 22.0 ],
					"text" : "minimum"
				}

			}
, 			{
				"box" : 				{
					"id" : "obj-10",
					"maxclass" : "button",
					"numinlets" : 1,
					"numoutlets" : 1,
					"outlettype" : [ "bang" ],
					"parameter_enable" : 0,
					"patching_rect" : [ 982.403427064418793, 943.776013493537903, 24.0, 24.0 ]
				}

			}
, 			{
				"box" : 				{
					"id" : "obj-5",
					"maxclass" : "toggle",
					"numinlets" : 1,
					"numoutlets" : 1,
					"outlettype" : [ "int" ],
					"parameter_enable" : 0,
					"patching_rect" : [ 1039.803427219390869, 796.0, 24.0, 24.0 ]
				}

			}
, 			{
				"box" : 				{
					"id" : "obj-3",
					"maxclass" : "newobj",
					"numinlets" : 2,
					"numoutlets" : 1,
					"outlettype" : [ "bang" ],
					"patching_rect" : [ 1039.803427219390869, 831.0, 69.0, 22.0 ],
					"text" : "qmetro 250"
				}

			}
, 			{
				"box" : 				{
					"id" : "obj-246",
					"maxclass" : "newobj",
					"numinlets" : 2,
					"numoutlets" : 1,
					"outlettype" : [ "" ],
					"patching_rect" : [ 858.203424513339996, 1332.00001984834671, 46.0, 22.0 ],
					"text" : "pack i i"
				}

			}
, 			{
				"box" : 				{
					"id" : "obj-247",
					"maxclass" : "newobj",
					"numinlets" : 1,
					"numoutlets" : 2,
					"outlettype" : [ "float", "float" ],
					"patching_rect" : [ 858.203424513339996, 1265.751004993915558, 61.0, 22.0 ],
					"text" : "unpack f f"
				}

			}
, 			{
				"box" : 				{
					"id" : "obj-248",
					"maxclass" : "newobj",
					"numinlets" : 2,
					"numoutlets" : 1,
					"outlettype" : [ "float" ],
					"patching_rect" : [ 905.203424513339996, 1299.414746284484863, 40.0, 22.0 ],
					"text" : "* 127."
				}

			}
, 			{
				"box" : 				{
					"id" : "obj-249",
					"maxclass" : "newobj",
					"numinlets" : 2,
					"numoutlets" : 1,
					"outlettype" : [ "float" ],
					"patching_rect" : [ 858.203424513339996, 1299.414746284484863, 40.0, 22.0 ],
					"text" : "* 127."
				}

			}
, 			{
				"box" : 				{
					"id" : "obj-250",
					"maxclass" : "pictslider",
					"numinlets" : 2,
					"numoutlets" : 2,
					"outlettype" : [ "int", "int" ],
					"parameter_enable" : 0,
					"patching_rect" : [ 422.203424513339996, 1181.513920783996582, 334.5, 334.5 ]
				}

			}
, 			{
				"box" : 				{
					"id" : "obj-230",
					"maxclass" : "newobj",
					"numinlets" : 3,
					"numoutlets" : 1,
					"outlettype" : [ "" ],
					"patcher" : 					{
						"fileversion" : 1,
						"appversion" : 						{
							"major" : 8,
							"minor" : 1,
							"revision" : 0,
							"architecture" : "x64",
							"modernui" : 1
						}
,
						"classnamespace" : "box",
						"rect" : [ 0.0, 0.0, 640.0, 480.0 ],
						"bglocked" : 0,
						"openinpresentation" : 0,
						"default_fontsize" : 12.0,
						"default_fontface" : 0,
						"default_fontname" : "Arial",
						"gridonopen" : 1,
						"gridsize" : [ 15.0, 15.0 ],
						"gridsnaponopen" : 1,
						"objectsnaponopen" : 1,
						"statusbarvisible" : 2,
						"toolbarvisible" : 1,
						"lefttoolbarpinned" : 0,
						"toptoolbarpinned" : 0,
						"righttoolbarpinned" : 0,
						"bottomtoolbarpinned" : 0,
						"toolbars_unpinned_last_save" : 0,
						"tallnewobj" : 0,
						"boxanimatetime" : 200,
						"enablehscroll" : 1,
						"enablevscroll" : 1,
						"devicewidth" : 0.0,
						"description" : "",
						"digest" : "",
						"tags" : "",
						"style" : "",
						"subpatcher_template" : "",
						"boxes" : [ 							{
								"box" : 								{
									"id" : "obj-209",
									"maxclass" : "newobj",
									"numinlets" : 6,
									"numoutlets" : 1,
									"outlettype" : [ "" ],
									"patching_rect" : [ 660.591239452362061, 153.095715582370758, 141.0, 22.0 ],
									"text" : "scale -10000 10000 0. 1."
								}

							}
, 							{
								"box" : 								{
									"id" : "obj-210",
									"maxclass" : "newobj",
									"numinlets" : 6,
									"numoutlets" : 1,
									"outlettype" : [ "" ],
									"patching_rect" : [ 818.191241800785065, 153.095715582370758, 141.0, 22.0 ],
									"text" : "scale -10000 10000 0. 1."
								}

							}
, 							{
								"box" : 								{
									"id" : "obj-211",
									"maxclass" : "newobj",
									"numinlets" : 6,
									"numoutlets" : 1,
									"outlettype" : [ "" ],
									"patching_rect" : [ 511.791237235069275, 153.095715582370758, 141.0, 22.0 ],
									"text" : "scale -10000 10000 0. 1."
								}

							}
, 							{
								"box" : 								{
									"id" : "obj-208",
									"maxclass" : "newobj",
									"numinlets" : 6,
									"numoutlets" : 1,
									"outlettype" : [ "" ],
									"patching_rect" : [ 198.991232573986053, 153.095715582370758, 141.0, 22.0 ],
									"text" : "scale -10000 10000 0. 1."
								}

							}
, 							{
								"box" : 								{
									"id" : "obj-207",
									"maxclass" : "newobj",
									"numinlets" : 6,
									"numoutlets" : 1,
									"outlettype" : [ "" ],
									"patching_rect" : [ 356.591234922409058, 153.095715582370758, 141.0, 22.0 ],
									"text" : "scale -10000 10000 0. 1."
								}

							}
, 							{
								"box" : 								{
									"id" : "obj-206",
									"maxclass" : "newobj",
									"numinlets" : 1,
									"numoutlets" : 6,
									"outlettype" : [ "float", "float", "float", "float", "float", "float" ],
									"patching_rect" : [ 50.0, 100.0, 87.0, 22.0 ],
									"text" : "unpack f f f f f f"
								}

							}
, 							{
								"box" : 								{
									"id" : "obj-205",
									"maxclass" : "newobj",
									"numinlets" : 6,
									"numoutlets" : 1,
									"outlettype" : [ "" ],
									"patching_rect" : [ 50.191230356693268, 236.281817555427551, 785.000011414289474, 22.0 ],
									"text" : "pack f f f f f f"
								}

							}
, 							{
								"box" : 								{
									"id" : "obj-199",
									"maxclass" : "newobj",
									"numinlets" : 6,
									"numoutlets" : 1,
									"outlettype" : [ "" ],
									"patching_rect" : [ 50.191230356693268, 153.095715582370758, 141.0, 22.0 ],
									"text" : "scale -10000 10000 0. 1."
								}

							}
, 							{
								"box" : 								{
									"comment" : "",
									"id" : "obj-226",
									"index" : 1,
									"maxclass" : "inlet",
									"numinlets" : 0,
									"numoutlets" : 1,
									"outlettype" : [ "" ],
									"patching_rect" : [ 49.999998573986048, 40.00002674019629, 30.0, 30.0 ]
								}

							}
, 							{
								"box" : 								{
									"comment" : "",
									"id" : "obj-227",
									"index" : 2,
									"maxclass" : "inlet",
									"numinlets" : 0,
									"numoutlets" : 1,
									"outlettype" : [ "" ],
									"patching_rect" : [ 426.724569573986059, 40.00002674019629, 30.0, 30.0 ]
								}

							}
, 							{
								"box" : 								{
									"comment" : "",
									"id" : "obj-228",
									"index" : 3,
									"maxclass" : "inlet",
									"numinlets" : 0,
									"numoutlets" : 1,
									"outlettype" : [ "" ],
									"patching_rect" : [ 461.724569573986059, 40.00002674019629, 30.0, 30.0 ]
								}

							}
, 							{
								"box" : 								{
									"comment" : "",
									"id" : "obj-229",
									"index" : 1,
									"maxclass" : "outlet",
									"numinlets" : 1,
									"numoutlets" : 0,
									"patching_rect" : [ 50.19122957398605, 318.281765740196306, 30.0, 30.0 ]
								}

							}
 ],
						"lines" : [ 							{
								"patchline" : 								{
									"destination" : [ "obj-205", 0 ],
									"source" : [ "obj-199", 0 ]
								}

							}
, 							{
								"patchline" : 								{
									"destination" : [ "obj-229", 0 ],
									"source" : [ "obj-205", 0 ]
								}

							}
, 							{
								"patchline" : 								{
									"destination" : [ "obj-199", 0 ],
									"source" : [ "obj-206", 0 ]
								}

							}
, 							{
								"patchline" : 								{
									"destination" : [ "obj-207", 0 ],
									"source" : [ "obj-206", 2 ]
								}

							}
, 							{
								"patchline" : 								{
									"destination" : [ "obj-208", 0 ],
									"source" : [ "obj-206", 1 ]
								}

							}
, 							{
								"patchline" : 								{
									"destination" : [ "obj-209", 0 ],
									"source" : [ "obj-206", 4 ]
								}

							}
, 							{
								"patchline" : 								{
									"destination" : [ "obj-210", 0 ],
									"source" : [ "obj-206", 5 ]
								}

							}
, 							{
								"patchline" : 								{
									"destination" : [ "obj-211", 0 ],
									"source" : [ "obj-206", 3 ]
								}

							}
, 							{
								"patchline" : 								{
									"destination" : [ "obj-205", 2 ],
									"source" : [ "obj-207", 0 ]
								}

							}
, 							{
								"patchline" : 								{
									"destination" : [ "obj-205", 1 ],
									"source" : [ "obj-208", 0 ]
								}

							}
, 							{
								"patchline" : 								{
									"destination" : [ "obj-205", 4 ],
									"source" : [ "obj-209", 0 ]
								}

							}
, 							{
								"patchline" : 								{
									"destination" : [ "obj-205", 5 ],
									"source" : [ "obj-210", 0 ]
								}

							}
, 							{
								"patchline" : 								{
									"destination" : [ "obj-205", 3 ],
									"source" : [ "obj-211", 0 ]
								}

							}
, 							{
								"patchline" : 								{
									"destination" : [ "obj-206", 0 ],
									"source" : [ "obj-226", 0 ]
								}

							}
, 							{
								"patchline" : 								{
									"destination" : [ "obj-199", 1 ],
									"order" : 5,
									"source" : [ "obj-227", 0 ]
								}

							}
, 							{
								"patchline" : 								{
									"destination" : [ "obj-207", 1 ],
									"order" : 3,
									"source" : [ "obj-227", 0 ]
								}

							}
, 							{
								"patchline" : 								{
									"destination" : [ "obj-208", 1 ],
									"order" : 4,
									"source" : [ "obj-227", 0 ]
								}

							}
, 							{
								"patchline" : 								{
									"destination" : [ "obj-209", 1 ],
									"order" : 1,
									"source" : [ "obj-227", 0 ]
								}

							}
, 							{
								"patchline" : 								{
									"destination" : [ "obj-210", 1 ],
									"order" : 0,
									"source" : [ "obj-227", 0 ]
								}

							}
, 							{
								"patchline" : 								{
									"destination" : [ "obj-211", 1 ],
									"order" : 2,
									"source" : [ "obj-227", 0 ]
								}

							}
, 							{
								"patchline" : 								{
									"destination" : [ "obj-199", 2 ],
									"order" : 5,
									"source" : [ "obj-228", 0 ]
								}

							}
, 							{
								"patchline" : 								{
									"destination" : [ "obj-207", 2 ],
									"order" : 3,
									"source" : [ "obj-228", 0 ]
								}

							}
, 							{
								"patchline" : 								{
									"destination" : [ "obj-208", 2 ],
									"order" : 4,
									"source" : [ "obj-228", 0 ]
								}

							}
, 							{
								"patchline" : 								{
									"destination" : [ "obj-209", 2 ],
									"order" : 1,
									"source" : [ "obj-228", 0 ]
								}

							}
, 							{
								"patchline" : 								{
									"destination" : [ "obj-210", 2 ],
									"order" : 0,
									"source" : [ "obj-228", 0 ]
								}

							}
, 							{
								"patchline" : 								{
									"destination" : [ "obj-211", 2 ],
									"order" : 2,
									"source" : [ "obj-228", 0 ]
								}

							}
 ]
					}
,
					"patching_rect" : [ 214.749127849936485, 614.976008594036102, 59.0, 22.0 ],
					"saved_object_attributes" : 					{
						"description" : "",
						"digest" : "",
						"globalpatchername" : "",
						"tags" : ""
					}
,
					"text" : "p scaleall"
				}

			}
, 			{
				"box" : 				{
					"id" : "obj-217",
					"maxclass" : "newobj",
					"numinlets" : 1,
					"numoutlets" : 1,
					"outlettype" : [ "" ],
					"patching_rect" : [ 349.709506154060364, 520.80000776052475, 97.0, 22.0 ],
					"text" : "loadmess 32300"
				}

			}
, 			{
				"box" : 				{
					"id" : "obj-216",
					"maxclass" : "newobj",
					"numinlets" : 1,
					"numoutlets" : 1,
					"outlettype" : [ "" ],
					"patching_rect" : [ 235.200003504753113, 520.80000776052475, 101.0, 22.0 ],
					"text" : "loadmess -32300"
				}

			}
, 			{
				"box" : 				{
					"id" : "obj-215",
					"maxclass" : "number",
					"numinlets" : 1,
					"numoutlets" : 2,
					"outlettype" : [ "", "bang" ],
					"parameter_enable" : 0,
					"patching_rect" : [ 349.709506154060364, 560.000008344650269, 77.200000405311584, 22.0 ]
				}

			}
, 			{
				"box" : 				{
					"id" : "obj-214",
					"maxclass" : "number",
					"numinlets" : 1,
					"numoutlets" : 2,
					"outlettype" : [ "", "bang" ],
					"parameter_enable" : 0,
					"patching_rect" : [ 235.200003504753113, 560.000008344650269, 77.200000405311584, 22.0 ]
				}

			}
, 			{
				"box" : 				{
					"id" : "obj-200",
					"maxclass" : "gswitch2",
					"numinlets" : 2,
					"numoutlets" : 2,
					"outlettype" : [ "", "" ],
					"parameter_enable" : 0,
					"patching_rect" : [ 636.5095095038414, 542.400008082389832, 39.0, 32.0 ]
				}

			}
, 			{
				"box" : 				{
					"id" : "obj-180",
					"maxclass" : "newobj",
					"numinlets" : 1,
					"numoutlets" : 6,
					"outlettype" : [ "float", "float", "float", "float", "float", "float" ],
					"patching_rect" : [ 636.566007256507874, 849.42689460515976, 87.0, 22.0 ],
					"text" : "unpack f f f f f f"
				}

			}
, 			{
				"box" : 				{
					"id" : "obj-181",
					"maxclass" : "newobj",
					"numinlets" : 6,
					"numoutlets" : 1,
					"outlettype" : [ "" ],
					"patching_rect" : [ 636.566007256507874, 911.999991297721863, 86.999999999999886, 22.0 ],
					"text" : "pak f f f f f f"
				}

			}
, 			{
				"box" : 				{
					"id" : "obj-182",
					"maxclass" : "multislider",
					"numinlets" : 1,
					"numoutlets" : 2,
					"outlettype" : [ "", "" ],
					"parameter_enable" : 0,
					"patching_rect" : [ 636.5095095038414, 727.0, 154.421062707901001, 100.284371256828308 ],
					"setminmax" : [ 0.0, 1.0 ],
					"size" : 6
				}

			}
, 			{
				"box" : 				{
					"id" : "obj-187",
					"maxclass" : "message",
					"numinlets" : 2,
					"numoutlets" : 1,
					"outlettype" : [ "" ],
					"patching_rect" : [ 1039.803427219390869, 874.61518269777298, 454.715782284736633, 22.0 ],
					"text" : "0.50483 0.498638 0.493607 0.436889 0.587446 0.466563 0. 0.023622"
				}

			}
, 			{
				"box" : 				{
					"id" : "obj-188",
					"maxclass" : "newobj",
					"numinlets" : 1,
					"numoutlets" : 6,
					"outlettype" : [ "float", "float", "float", "float", "float", "float" ],
					"patching_rect" : [ 1208.263839662075043, 773.681855797767639, 87.0, 22.0 ],
					"text" : "unpack f f f f f f"
				}

			}
, 			{
				"box" : 				{
					"id" : "obj-189",
					"maxclass" : "newobj",
					"numinlets" : 8,
					"numoutlets" : 1,
					"outlettype" : [ "" ],
					"patching_rect" : [ 1208.320337414742426, 816.854951858520508, 114.199999999998681, 22.0 ],
					"text" : "pak f f f f f f f f"
				}

			}
, 			{
				"box" : 				{
					"id" : "obj-190",
					"maxclass" : "multislider",
					"numinlets" : 1,
					"numoutlets" : 2,
					"outlettype" : [ "", "" ],
					"parameter_enable" : 0,
					"patching_rect" : [ 1208.263839662075043, 618.854960560798645, 154.421062707901001, 100.284371256828308 ],
					"setminmax" : [ 0.0, 1.0 ],
					"size" : 6
				}

			}
, 			{
				"box" : 				{
					"id" : "obj-191",
					"maxclass" : "message",
					"numinlets" : 2,
					"numoutlets" : 1,
					"outlettype" : [ "" ],
					"patching_rect" : [ 815.203424513339996, 1110.040334224700928, 83.0, 22.0 ],
					"text" : "clear_training"
				}

			}
, 			{
				"box" : 				{
					"id" : "obj-192",
					"maxclass" : "newobj",
					"numinlets" : 2,
					"numoutlets" : 1,
					"outlettype" : [ "float" ],
					"patching_rect" : [ 1454.519209504127502, 731.281855165958405, 40.0, 22.0 ],
					"text" : "/ 127."
				}

			}
, 			{
				"box" : 				{
					"id" : "obj-193",
					"maxclass" : "newobj",
					"numinlets" : 2,
					"numoutlets" : 1,
					"outlettype" : [ "float" ],
					"patching_rect" : [ 1394.519209504127502, 731.281855165958405, 40.0, 22.0 ],
					"text" : "/ 127."
				}

			}
, 			{
				"box" : 				{
					"id" : "obj-194",
					"maxclass" : "pictslider",
					"numinlets" : 2,
					"numoutlets" : 2,
					"outlettype" : [ "int", "int" ],
					"parameter_enable" : 0,
					"patching_rect" : [ 1394.519209504127502, 618.854960560798645, 100.0, 100.0 ]
				}

			}
, 			{
				"box" : 				{
					"id" : "obj-195",
					"maxclass" : "message",
					"numinlets" : 2,
					"numoutlets" : 1,
					"outlettype" : [ "" ],
					"patching_rect" : [ 1009.514356195926666, 1110.040334224700928, 33.0, 22.0 ],
					"text" : "train"
				}

			}
, 			{
				"box" : 				{
					"id" : "obj-196",
					"maxclass" : "button",
					"numinlets" : 1,
					"numoutlets" : 1,
					"outlettype" : [ "bang" ],
					"parameter_enable" : 0,
					"patching_rect" : [ 815.203424513339996, 1065.045809268951416, 24.0, 24.0 ]
				}

			}
, 			{
				"box" : 				{
					"id" : "obj-197",
					"maxclass" : "message",
					"numinlets" : 2,
					"numoutlets" : 1,
					"outlettype" : [ "" ],
					"patching_rect" : [ 904.203424513339996, 1110.040334224700928, 36.0, 22.0 ],
					"text" : "reset"
				}

			}
, 			{
				"box" : 				{
					"color" : [ 0.113725, 0.580392, 0.737255, 1.0 ],
					"fontname" : "Arial",
					"fontsize" : 11.595186999999999,
					"id" : "obj-198",
					"maxclass" : "newobj",
					"numinlets" : 2,
					"numoutlets" : 3,
					"outlettype" : [ "", "", "" ],
					"patching_rect" : [ 858.203424513339996, 1189.098809838294983, 81.0, 21.0 ],
					"text" : "ml.mlp 6 2 8 2"
				}

			}
, 			{
				"box" : 				{
					"id" : "obj-130",
					"maxclass" : "multislider",
					"numinlets" : 1,
					"numoutlets" : 2,
					"outlettype" : [ "", "" ],
					"parameter_enable" : 0,
					"patching_rect" : [ 80.050871625542641, 678.976009547710419, 156.898255676031113, 103.484371304512024 ],
					"setminmax" : [ -10000.0, 10000.0 ],
					"size" : 6
				}

			}
, 			{
				"box" : 				{
					"id" : "obj-129",
					"maxclass" : "newobj",
					"numinlets" : 1,
					"numoutlets" : 1,
					"outlettype" : [ "" ],
					"patching_rect" : [ 80.0, 537.642076075077057, 71.0, 22.0 ],
					"text" : "fromsymbol"
				}

			}
, 			{
				"box" : 				{
					"id" : "obj-2",
					"maxclass" : "message",
					"numinlets" : 2,
					"numoutlets" : 1,
					"outlettype" : [ "" ],
					"patching_rect" : [ 80.0, 406.380362868309021, 103.0, 22.0 ],
					"text" : "script npm rebuild"
				}

			}
, 			{
				"box" : 				{
					"id" : "obj-8",
					"maxclass" : "message",
					"numinlets" : 2,
					"numoutlets" : 1,
					"outlettype" : [ "" ],
					"patching_rect" : [ 80.0, 375.313695927460969, 98.0, 22.0 ],
					"text" : "script npm install"
				}

			}
, 			{
				"box" : 				{
					"id" : "obj-7",
					"maxclass" : "message",
					"numinlets" : 2,
					"numoutlets" : 1,
					"outlettype" : [ "" ],
					"patching_rect" : [ 80.0, 344.247028986612918, 63.0, 22.0 ],
					"text" : "script stop"
				}

			}
, 			{
				"box" : 				{
					"id" : "obj-12",
					"maxclass" : "message",
					"numinlets" : 2,
					"numoutlets" : 1,
					"outlettype" : [ "" ],
					"patching_rect" : [ 80.0, 313.180362045764923, 66.0, 22.0 ],
					"text" : "script start"
				}

			}
, 			{
				"box" : 				{
					"bgmode" : 0,
					"border" : 0,
					"clickthrough" : 0,
					"enablehscroll" : 0,
					"enablevscroll" : 0,
					"id" : "obj-6",
					"lockeddragscroll" : 0,
					"maxclass" : "bpatcher",
					"name" : "n4m.monitor.maxpat",
					"numinlets" : 1,
					"numoutlets" : 1,
					"offset" : [ 0.0, 0.0 ],
					"outlettype" : [ "bang" ],
					"patching_rect" : [ 519.43450266122818, 186.339422106742859, 400.0, 220.0 ],
					"viewvisibility" : 1
				}

			}
, 			{
				"box" : 				{
					"id" : "obj-1",
					"maxclass" : "newobj",
					"numinlets" : 1,
					"numoutlets" : 2,
					"outlettype" : [ "", "" ],
					"patching_rect" : [ 80.0, 456.0, 118.0, 22.0 ],
					"saved_object_attributes" : 					{
						"autostart" : 0,
						"defer" : 0,
						"watch" : 0
					}
,
					"text" : "node.script ./index.js"
				}

			}
, 			{
				"box" : 				{
					"angle" : 270.0,
					"bgcolor" : [ 0.717647058823529, 0.701960784313725, 0.470588235294118, 0.28 ],
					"id" : "obj-30",
					"maxclass" : "panel",
					"mode" : 0,
					"numinlets" : 1,
					"numoutlets" : 0,
					"patching_rect" : [ 945.600014090538025, 501.900008082389832, 725.600008904933929, 510.400005698204041 ],
					"proportion" : 0.5
				}

			}
 ],
		"lines" : [ 			{
				"patchline" : 				{
					"destination" : [ "obj-129", 0 ],
					"source" : [ "obj-1", 0 ]
				}

			}
, 			{
				"patchline" : 				{
					"destination" : [ "obj-6", 0 ],
					"source" : [ "obj-1", 1 ]
				}

			}
, 			{
				"patchline" : 				{
					"destination" : [ "obj-14", 0 ],
					"source" : [ "obj-11", 0 ]
				}

			}
, 			{
				"patchline" : 				{
					"destination" : [ "obj-1", 0 ],
					"source" : [ "obj-12", 0 ]
				}

			}
, 			{
				"patchline" : 				{
					"destination" : [ "obj-130", 0 ],
					"order" : 2,
					"source" : [ "obj-129", 0 ]
				}

			}
, 			{
				"patchline" : 				{
					"destination" : [ "obj-15", 0 ],
					"order" : 0,
					"source" : [ "obj-129", 0 ]
				}

			}
, 			{
				"patchline" : 				{
					"destination" : [ "obj-230", 0 ],
					"order" : 1,
					"source" : [ "obj-129", 0 ]
				}

			}
, 			{
				"patchline" : 				{
					"destination" : [ "obj-11", 1 ],
					"source" : [ "obj-14", 0 ]
				}

			}
, 			{
				"patchline" : 				{
					"destination" : [ "obj-18", 0 ],
					"source" : [ "obj-15", 5 ]
				}

			}
, 			{
				"patchline" : 				{
					"destination" : [ "obj-18", 0 ],
					"source" : [ "obj-15", 4 ]
				}

			}
, 			{
				"patchline" : 				{
					"destination" : [ "obj-18", 0 ],
					"source" : [ "obj-15", 3 ]
				}

			}
, 			{
				"patchline" : 				{
					"destination" : [ "obj-18", 0 ],
					"source" : [ "obj-15", 2 ]
				}

			}
, 			{
				"patchline" : 				{
					"destination" : [ "obj-18", 0 ],
					"source" : [ "obj-15", 1 ]
				}

			}
, 			{
				"patchline" : 				{
					"destination" : [ "obj-18", 0 ],
					"source" : [ "obj-15", 0 ]
				}

			}
, 			{
				"patchline" : 				{
					"destination" : [ "obj-17", 0 ],
					"source" : [ "obj-16", 0 ]
				}

			}
, 			{
				"patchline" : 				{
					"destination" : [ "obj-16", 1 ],
					"source" : [ "obj-17", 0 ]
				}

			}
, 			{
				"patchline" : 				{
					"destination" : [ "obj-11", 0 ],
					"order" : 1,
					"source" : [ "obj-18", 0 ]
				}

			}
, 			{
				"patchline" : 				{
					"destination" : [ "obj-16", 0 ],
					"order" : 0,
					"source" : [ "obj-18", 0 ]
				}

			}
, 			{
				"patchline" : 				{
					"destination" : [ "obj-181", 5 ],
					"source" : [ "obj-180", 5 ]
				}

			}
, 			{
				"patchline" : 				{
					"destination" : [ "obj-181", 4 ],
					"source" : [ "obj-180", 4 ]
				}

			}
, 			{
				"patchline" : 				{
					"destination" : [ "obj-181", 3 ],
					"source" : [ "obj-180", 3 ]
				}

			}
, 			{
				"patchline" : 				{
					"destination" : [ "obj-181", 2 ],
					"source" : [ "obj-180", 2 ]
				}

			}
, 			{
				"patchline" : 				{
					"destination" : [ "obj-181", 1 ],
					"source" : [ "obj-180", 1 ]
				}

			}
, 			{
				"patchline" : 				{
					"destination" : [ "obj-181", 0 ],
					"source" : [ "obj-180", 0 ]
				}

			}
, 			{
				"patchline" : 				{
					"destination" : [ "obj-198", 0 ],
					"source" : [ "obj-181", 0 ]
				}

			}
, 			{
				"patchline" : 				{
					"destination" : [ "obj-180", 0 ],
					"source" : [ "obj-182", 0 ]
				}

			}
, 			{
				"patchline" : 				{
					"destination" : [ "obj-10", 0 ],
					"midpoints" : [ 1049.303427219390869, 926.0, 991.903427064418793, 926.0 ],
					"order" : 0,
					"source" : [ "obj-187", 0 ]
				}

			}
, 			{
				"patchline" : 				{
					"destination" : [ "obj-198", 1 ],
					"midpoints" : [ 1049.303427219390869, 926.580121695995331, 976.753197968006134, 926.580121695995331, 976.753197968006134, 1149.200004100799561, 929.703424513339996, 1149.200004100799561 ],
					"order" : 1,
					"source" : [ "obj-187", 0 ]
				}

			}
, 			{
				"patchline" : 				{
					"destination" : [ "obj-189", 5 ],
					"source" : [ "obj-188", 5 ]
				}

			}
, 			{
				"patchline" : 				{
					"destination" : [ "obj-189", 4 ],
					"source" : [ "obj-188", 4 ]
				}

			}
, 			{
				"patchline" : 				{
					"destination" : [ "obj-189", 3 ],
					"source" : [ "obj-188", 3 ]
				}

			}
, 			{
				"patchline" : 				{
					"destination" : [ "obj-189", 2 ],
					"source" : [ "obj-188", 2 ]
				}

			}
, 			{
				"patchline" : 				{
					"destination" : [ "obj-189", 1 ],
					"source" : [ "obj-188", 1 ]
				}

			}
, 			{
				"patchline" : 				{
					"destination" : [ "obj-189", 0 ],
					"source" : [ "obj-188", 0 ]
				}

			}
, 			{
				"patchline" : 				{
					"destination" : [ "obj-187", 1 ],
					"source" : [ "obj-189", 0 ]
				}

			}
, 			{
				"patchline" : 				{
					"destination" : [ "obj-188", 0 ],
					"source" : [ "obj-190", 0 ]
				}

			}
, 			{
				"patchline" : 				{
					"destination" : [ "obj-198", 0 ],
					"midpoints" : [ 824.703424513339996, 1146.0, 867.703424513339996, 1146.0 ],
					"source" : [ "obj-191", 0 ]
				}

			}
, 			{
				"patchline" : 				{
					"destination" : [ "obj-189", 7 ],
					"source" : [ "obj-192", 0 ]
				}

			}
, 			{
				"patchline" : 				{
					"destination" : [ "obj-189", 6 ],
					"source" : [ "obj-193", 0 ]
				}

			}
, 			{
				"patchline" : 				{
					"destination" : [ "obj-192", 0 ],
					"midpoints" : [ 1485.019209504127502, 732.597665250301361, 1464.019209504127502, 732.597665250301361 ],
					"source" : [ "obj-194", 1 ]
				}

			}
, 			{
				"patchline" : 				{
					"destination" : [ "obj-193", 0 ],
					"source" : [ "obj-194", 0 ]
				}

			}
, 			{
				"patchline" : 				{
					"destination" : [ "obj-198", 0 ],
					"midpoints" : [ 1019.014356195926666, 1176.0, 867.703424513339996, 1176.0 ],
					"source" : [ "obj-195", 0 ]
				}

			}
, 			{
				"patchline" : 				{
					"destination" : [ "obj-191", 0 ],
					"order" : 1,
					"source" : [ "obj-196", 0 ]
				}

			}
, 			{
				"patchline" : 				{
					"destination" : [ "obj-197", 0 ],
					"midpoints" : [ 824.703424513339996, 1100.0, 913.703424513339996, 1100.0 ],
					"order" : 0,
					"source" : [ "obj-196", 0 ]
				}

			}
, 			{
				"patchline" : 				{
					"destination" : [ "obj-198", 0 ],
					"midpoints" : [ 913.703424513339996, 1150.0, 867.703424513339996, 1150.0 ],
					"source" : [ "obj-197", 0 ]
				}

			}
, 			{
				"patchline" : 				{
					"destination" : [ "obj-20", 0 ],
					"order" : 1,
					"source" : [ "obj-198", 0 ]
				}

			}
, 			{
				"patchline" : 				{
					"destination" : [ "obj-247", 0 ],
					"order" : 0,
					"source" : [ "obj-198", 0 ]
				}

			}
, 			{
				"patchline" : 				{
					"destination" : [ "obj-1", 0 ],
					"source" : [ "obj-2", 0 ]
				}

			}
, 			{
				"patchline" : 				{
					"destination" : [ "obj-182", 0 ],
					"source" : [ "obj-200", 0 ]
				}

			}
, 			{
				"patchline" : 				{
					"destination" : [ "obj-190", 0 ],
					"source" : [ "obj-200", 1 ]
				}

			}
, 			{
				"patchline" : 				{
					"destination" : [ "obj-230", 1 ],
					"source" : [ "obj-214", 0 ]
				}

			}
, 			{
				"patchline" : 				{
					"destination" : [ "obj-230", 2 ],
					"source" : [ "obj-215", 0 ]
				}

			}
, 			{
				"patchline" : 				{
					"destination" : [ "obj-214", 0 ],
					"source" : [ "obj-216", 0 ]
				}

			}
, 			{
				"patchline" : 				{
					"destination" : [ "obj-215", 0 ],
					"source" : [ "obj-217", 0 ]
				}

			}
, 			{
				"patchline" : 				{
					"destination" : [ "obj-200", 1 ],
					"source" : [ "obj-230", 0 ]
				}

			}
, 			{
				"patchline" : 				{
					"destination" : [ "obj-250", 0 ],
					"source" : [ "obj-246", 0 ]
				}

			}
, 			{
				"patchline" : 				{
					"destination" : [ "obj-248", 0 ],
					"source" : [ "obj-247", 1 ]
				}

			}
, 			{
				"patchline" : 				{
					"destination" : [ "obj-249", 0 ],
					"source" : [ "obj-247", 0 ]
				}

			}
, 			{
				"patchline" : 				{
					"destination" : [ "obj-246", 1 ],
					"source" : [ "obj-248", 0 ]
				}

			}
, 			{
				"patchline" : 				{
					"destination" : [ "obj-246", 0 ],
					"source" : [ "obj-249", 0 ]
				}

			}
, 			{
				"patchline" : 				{
					"destination" : [ "obj-187", 0 ],
					"source" : [ "obj-3", 0 ]
				}

			}
, 			{
				"patchline" : 				{
					"destination" : [ "obj-3", 0 ],
					"source" : [ "obj-5", 0 ]
				}

			}
, 			{
				"patchline" : 				{
					"destination" : [ "obj-1", 0 ],
					"source" : [ "obj-7", 0 ]
				}

			}
, 			{
				"patchline" : 				{
					"destination" : [ "obj-1", 0 ],
					"source" : [ "obj-8", 0 ]
				}

			}
 ],
		"dependency_cache" : [ 			{
				"name" : "index.js",
				"bootpath" : "~/dev/labyrinth/experiments/2MAG3110/software/gui",
				"patcherrelativepath" : "..",
				"type" : "TEXT",
				"implicit" : 1
			}
, 			{
				"name" : "n4m.monitor.maxpat",
				"bootpath" : "C74:/packages/Node For Max/patchers/debug-monitor",
				"type" : "JSON",
				"implicit" : 1
			}
, 			{
				"name" : "resize_n4m_monitor_patcher.js",
				"bootpath" : "C74:/packages/Node For Max/patchers/debug-monitor",
				"type" : "TEXT",
				"implicit" : 1
			}
, 			{
				"name" : "fit_jweb_to_bounds.js",
				"bootpath" : "C74:/packages/Node For Max/patchers/debug-monitor",
				"type" : "TEXT",
				"implicit" : 1
			}
, 			{
				"name" : "ml.mlp.mxo",
				"type" : "iLaX"
			}
 ],
		"autosave" : 0
	}

}
